<mxfile host="app.diagrams.net" agent="Mozilla/5.0 (Windows NT 10.0; Win64; x64) AppleWebKit/537.36 (KHTML, like Gecko) Chrome/132.0.0.0 Safari/537.36" version="26.0.14">
  <diagram id="C5RBs43oDa-KdzZeNtuy" name="Page-1">
    <mxGraphModel dx="3827" dy="2760" grid="1" gridSize="10" guides="1" tooltips="1" connect="1" arrows="1" fold="1" page="1" pageScale="1" pageWidth="827" pageHeight="1169" math="0" shadow="0">
      <root>
        <mxCell id="WIyWlLk6GJQsqaUBKTNV-0" />
        <mxCell id="WIyWlLk6GJQsqaUBKTNV-1" parent="WIyWlLk6GJQsqaUBKTNV-0" />
        <mxCell id="zkfFHV4jXpPFQw0GAbJ--0" value="Adhérent" style="swimlane;fontStyle=2;align=center;verticalAlign=top;childLayout=stackLayout;horizontal=1;startSize=26;horizontalStack=0;resizeParent=1;resizeLast=0;collapsible=1;marginBottom=0;rounded=0;shadow=0;strokeWidth=1;" parent="WIyWlLk6GJQsqaUBKTNV-1" vertex="1">
          <mxGeometry x="-220" y="70" width="510" height="398" as="geometry">
            <mxRectangle x="230" y="140" width="160" height="26" as="alternateBounds" />
          </mxGeometry>
        </mxCell>
        <mxCell id="zkfFHV4jXpPFQw0GAbJ--1" value="Id" style="text;align=left;verticalAlign=top;spacingLeft=4;spacingRight=4;overflow=hidden;rotatable=0;points=[[0,0.5],[1,0.5]];portConstraint=eastwest;" parent="zkfFHV4jXpPFQw0GAbJ--0" vertex="1">
          <mxGeometry y="26" width="510" height="26" as="geometry" />
        </mxCell>
        <mxCell id="zkfFHV4jXpPFQw0GAbJ--2" value="Prénom" style="text;align=left;verticalAlign=top;spacingLeft=4;spacingRight=4;overflow=hidden;rotatable=0;points=[[0,0.5],[1,0.5]];portConstraint=eastwest;rounded=0;shadow=0;html=0;" parent="zkfFHV4jXpPFQw0GAbJ--0" vertex="1">
          <mxGeometry y="52" width="510" height="26" as="geometry" />
        </mxCell>
        <mxCell id="zkfFHV4jXpPFQw0GAbJ--3" value="Nom" style="text;align=left;verticalAlign=top;spacingLeft=4;spacingRight=4;overflow=hidden;rotatable=0;points=[[0,0.5],[1,0.5]];portConstraint=eastwest;rounded=0;shadow=0;html=0;" parent="zkfFHV4jXpPFQw0GAbJ--0" vertex="1">
          <mxGeometry y="78" width="510" height="26" as="geometry" />
        </mxCell>
        <mxCell id="rCRz9aJ2gkoJCYlyv45j-1" value="Poids" style="text;align=left;verticalAlign=top;spacingLeft=4;spacingRight=4;overflow=hidden;rotatable=0;points=[[0,0.5],[1,0.5]];portConstraint=eastwest;rounded=0;shadow=0;html=0;" parent="zkfFHV4jXpPFQw0GAbJ--0" vertex="1">
          <mxGeometry y="104" width="510" height="26" as="geometry" />
        </mxCell>
        <mxCell id="rCRz9aJ2gkoJCYlyv45j-0" value="Taille" style="text;align=left;verticalAlign=top;spacingLeft=4;spacingRight=4;overflow=hidden;rotatable=0;points=[[0,0.5],[1,0.5]];portConstraint=eastwest;rounded=0;shadow=0;html=0;" parent="zkfFHV4jXpPFQw0GAbJ--0" vertex="1">
          <mxGeometry y="130" width="510" height="26" as="geometry" />
        </mxCell>
        <mxCell id="rCRz9aJ2gkoJCYlyv45j-4" value="Email" style="text;align=left;verticalAlign=top;spacingLeft=4;spacingRight=4;overflow=hidden;rotatable=0;points=[[0,0.5],[1,0.5]];portConstraint=eastwest;rounded=0;shadow=0;html=0;" parent="zkfFHV4jXpPFQw0GAbJ--0" vertex="1">
          <mxGeometry y="156" width="510" height="26" as="geometry" />
        </mxCell>
        <mxCell id="rCRz9aJ2gkoJCYlyv45j-5" value="Date de Naissance" style="text;align=left;verticalAlign=top;spacingLeft=4;spacingRight=4;overflow=hidden;rotatable=0;points=[[0,0.5],[1,0.5]];portConstraint=eastwest;rounded=0;shadow=0;html=0;" parent="zkfFHV4jXpPFQw0GAbJ--0" vertex="1">
          <mxGeometry y="182" width="510" height="26" as="geometry" />
        </mxCell>
        <mxCell id="rCRz9aJ2gkoJCYlyv45j-28" value="id_address" style="text;align=left;verticalAlign=top;spacingLeft=4;spacingRight=4;overflow=hidden;rotatable=0;points=[[0,0.5],[1,0.5]];portConstraint=eastwest;rounded=0;shadow=0;html=0;" parent="zkfFHV4jXpPFQw0GAbJ--0" vertex="1">
          <mxGeometry y="208" width="510" height="26" as="geometry" />
        </mxCell>
        <mxCell id="rCRz9aJ2gkoJCYlyv45j-44" value="id_abonnement " style="text;align=left;verticalAlign=top;spacingLeft=4;spacingRight=4;overflow=hidden;rotatable=0;points=[[0,0.5],[1,0.5]];portConstraint=eastwest;rounded=0;shadow=0;html=0;" parent="zkfFHV4jXpPFQw0GAbJ--0" vertex="1">
          <mxGeometry y="234" width="510" height="26" as="geometry" />
        </mxCell>
        <mxCell id="zkfFHV4jXpPFQw0GAbJ--4" value="" style="line;html=1;strokeWidth=1;align=left;verticalAlign=middle;spacingTop=-1;spacingLeft=3;spacingRight=3;rotatable=0;labelPosition=right;points=[];portConstraint=eastwest;" parent="zkfFHV4jXpPFQw0GAbJ--0" vertex="1">
          <mxGeometry y="260" width="510" height="8" as="geometry" />
        </mxCell>
        <mxCell id="zkfFHV4jXpPFQw0GAbJ--5" value="POST : CreateUser() / Admin / user ,  Crée un utilisateur " style="text;align=left;verticalAlign=top;spacingLeft=4;spacingRight=4;overflow=hidden;rotatable=0;points=[[0,0.5],[1,0.5]];portConstraint=eastwest;" parent="zkfFHV4jXpPFQw0GAbJ--0" vertex="1">
          <mxGeometry y="268" width="510" height="26" as="geometry" />
        </mxCell>
        <mxCell id="rCRz9aJ2gkoJCYlyv45j-2" value="PUT : UpdateUser() / Admin, Adhérent / Modifier un utilisateur" style="text;align=left;verticalAlign=top;spacingLeft=4;spacingRight=4;overflow=hidden;rotatable=0;points=[[0,0.5],[1,0.5]];portConstraint=eastwest;rounded=0;shadow=0;html=0;" parent="zkfFHV4jXpPFQw0GAbJ--0" vertex="1">
          <mxGeometry y="294" width="510" height="26" as="geometry" />
        </mxCell>
        <mxCell id="rCRz9aJ2gkoJCYlyv45j-3" value="DELETE : DeleteUser() / Admin, Adhérent  / Supprimer un utilisateur/son compte" style="text;align=left;verticalAlign=top;spacingLeft=4;spacingRight=4;overflow=hidden;rotatable=0;points=[[0,0.5],[1,0.5]];portConstraint=eastwest;rounded=0;shadow=0;html=0;" parent="zkfFHV4jXpPFQw0GAbJ--0" vertex="1">
          <mxGeometry y="320" width="510" height="26" as="geometry" />
        </mxCell>
        <mxCell id="rCRz9aJ2gkoJCYlyv45j-6" value="GET : SeeAllUser() / Admin, Récupère tous les adhérents" style="text;align=left;verticalAlign=top;spacingLeft=4;spacingRight=4;overflow=hidden;rotatable=0;points=[[0,0.5],[1,0.5]];portConstraint=eastwest;rounded=0;shadow=0;html=0;" parent="zkfFHV4jXpPFQw0GAbJ--0" vertex="1">
          <mxGeometry y="346" width="510" height="26" as="geometry" />
        </mxCell>
        <mxCell id="rCRz9aJ2gkoJCYlyv45j-7" value="GET : FindUserById() / Admin, Récupère les adhérents par id" style="text;align=left;verticalAlign=top;spacingLeft=4;spacingRight=4;overflow=hidden;rotatable=0;points=[[0,0.5],[1,0.5]];portConstraint=eastwest;rounded=0;shadow=0;html=0;" parent="zkfFHV4jXpPFQw0GAbJ--0" vertex="1">
          <mxGeometry y="372" width="510" height="26" as="geometry" />
        </mxCell>
        <mxCell id="rCRz9aJ2gkoJCYlyv45j-11" value="Address" style="swimlane;fontStyle=2;align=center;verticalAlign=top;childLayout=stackLayout;horizontal=1;startSize=26;horizontalStack=0;resizeParent=1;resizeLast=0;collapsible=1;marginBottom=0;rounded=0;shadow=0;strokeWidth=1;" parent="WIyWlLk6GJQsqaUBKTNV-1" vertex="1">
          <mxGeometry x="510" y="80" width="200" height="230" as="geometry">
            <mxRectangle x="230" y="140" width="160" height="26" as="alternateBounds" />
          </mxGeometry>
        </mxCell>
        <mxCell id="rCRz9aJ2gkoJCYlyv45j-12" value="Id" style="text;align=left;verticalAlign=top;spacingLeft=4;spacingRight=4;overflow=hidden;rotatable=0;points=[[0,0.5],[1,0.5]];portConstraint=eastwest;" parent="rCRz9aJ2gkoJCYlyv45j-11" vertex="1">
          <mxGeometry y="26" width="200" height="26" as="geometry" />
        </mxCell>
        <mxCell id="rCRz9aJ2gkoJCYlyv45j-13" value="Code postal" style="text;align=left;verticalAlign=top;spacingLeft=4;spacingRight=4;overflow=hidden;rotatable=0;points=[[0,0.5],[1,0.5]];portConstraint=eastwest;rounded=0;shadow=0;html=0;" parent="rCRz9aJ2gkoJCYlyv45j-11" vertex="1">
          <mxGeometry y="52" width="200" height="26" as="geometry" />
        </mxCell>
        <mxCell id="rCRz9aJ2gkoJCYlyv45j-14" value="Ville" style="text;align=left;verticalAlign=top;spacingLeft=4;spacingRight=4;overflow=hidden;rotatable=0;points=[[0,0.5],[1,0.5]];portConstraint=eastwest;rounded=0;shadow=0;html=0;" parent="rCRz9aJ2gkoJCYlyv45j-11" vertex="1">
          <mxGeometry y="78" width="200" height="26" as="geometry" />
        </mxCell>
        <mxCell id="rCRz9aJ2gkoJCYlyv45j-15" value="Pays" style="text;align=left;verticalAlign=top;spacingLeft=4;spacingRight=4;overflow=hidden;rotatable=0;points=[[0,0.5],[1,0.5]];portConstraint=eastwest;rounded=0;shadow=0;html=0;" parent="rCRz9aJ2gkoJCYlyv45j-11" vertex="1">
          <mxGeometry y="104" width="200" height="26" as="geometry" />
        </mxCell>
        <mxCell id="rCRz9aJ2gkoJCYlyv45j-16" value="nom de rue" style="text;align=left;verticalAlign=top;spacingLeft=4;spacingRight=4;overflow=hidden;rotatable=0;points=[[0,0.5],[1,0.5]];portConstraint=eastwest;rounded=0;shadow=0;html=0;" parent="rCRz9aJ2gkoJCYlyv45j-11" vertex="1">
          <mxGeometry y="130" width="200" height="26" as="geometry" />
        </mxCell>
        <mxCell id="rCRz9aJ2gkoJCYlyv45j-17" value="Numéro" style="text;align=left;verticalAlign=top;spacingLeft=4;spacingRight=4;overflow=hidden;rotatable=0;points=[[0,0.5],[1,0.5]];portConstraint=eastwest;rounded=0;shadow=0;html=0;" parent="rCRz9aJ2gkoJCYlyv45j-11" vertex="1">
          <mxGeometry y="156" width="200" height="26" as="geometry" />
        </mxCell>
        <mxCell id="rCRz9aJ2gkoJCYlyv45j-19" value="" style="line;html=1;strokeWidth=1;align=left;verticalAlign=middle;spacingTop=-1;spacingLeft=3;spacingRight=3;rotatable=0;labelPosition=right;points=[];portConstraint=eastwest;" parent="rCRz9aJ2gkoJCYlyv45j-11" vertex="1">
          <mxGeometry y="182" width="200" height="8" as="geometry" />
        </mxCell>
        <mxCell id="rCRz9aJ2gkoJCYlyv45j-20" value="GET : getAdressByUserId() / Admin" style="text;align=left;verticalAlign=top;spacingLeft=4;spacingRight=4;overflow=hidden;rotatable=0;points=[[0,0.5],[1,0.5]];portConstraint=eastwest;" parent="rCRz9aJ2gkoJCYlyv45j-11" vertex="1">
          <mxGeometry y="190" width="200" height="26" as="geometry" />
        </mxCell>
        <mxCell id="rCRz9aJ2gkoJCYlyv45j-25" value="" style="endArrow=none;html=1;rounded=0;exitX=1;exitY=0.5;exitDx=0;exitDy=0;entryX=0;entryY=0.5;entryDx=0;entryDy=0;" parent="WIyWlLk6GJQsqaUBKTNV-1" source="rCRz9aJ2gkoJCYlyv45j-0" target="rCRz9aJ2gkoJCYlyv45j-15" edge="1">
          <mxGeometry width="50" height="50" relative="1" as="geometry">
            <mxPoint x="440" y="290" as="sourcePoint" />
            <mxPoint x="490" y="240" as="targetPoint" />
          </mxGeometry>
        </mxCell>
        <mxCell id="rCRz9aJ2gkoJCYlyv45j-26" value="1.1" style="text;html=1;align=center;verticalAlign=middle;whiteSpace=wrap;rounded=0;" parent="WIyWlLk6GJQsqaUBKTNV-1" vertex="1">
          <mxGeometry x="280" y="180" width="60" height="30" as="geometry" />
        </mxCell>
        <mxCell id="rCRz9aJ2gkoJCYlyv45j-27" value="1.n" style="text;html=1;align=center;verticalAlign=middle;whiteSpace=wrap;rounded=0;" parent="WIyWlLk6GJQsqaUBKTNV-1" vertex="1">
          <mxGeometry x="460" y="170" width="60" height="30" as="geometry" />
        </mxCell>
        <mxCell id="rCRz9aJ2gkoJCYlyv45j-29" value="Abonnement " style="swimlane;fontStyle=2;align=center;verticalAlign=top;childLayout=stackLayout;horizontal=1;startSize=26;horizontalStack=0;resizeParent=1;resizeLast=0;collapsible=1;marginBottom=0;rounded=0;shadow=0;strokeWidth=1;" parent="WIyWlLk6GJQsqaUBKTNV-1" vertex="1">
          <mxGeometry x="-450" y="-390" width="520" height="230" as="geometry">
            <mxRectangle x="230" y="140" width="160" height="26" as="alternateBounds" />
          </mxGeometry>
        </mxCell>
        <mxCell id="rCRz9aJ2gkoJCYlyv45j-30" value="Id" style="text;align=left;verticalAlign=top;spacingLeft=4;spacingRight=4;overflow=hidden;rotatable=0;points=[[0,0.5],[1,0.5]];portConstraint=eastwest;" parent="rCRz9aJ2gkoJCYlyv45j-29" vertex="1">
          <mxGeometry y="26" width="520" height="26" as="geometry" />
        </mxCell>
        <mxCell id="rCRz9aJ2gkoJCYlyv45j-31" value="Nom" style="text;align=left;verticalAlign=top;spacingLeft=4;spacingRight=4;overflow=hidden;rotatable=0;points=[[0,0.5],[1,0.5]];portConstraint=eastwest;rounded=0;shadow=0;html=0;" parent="rCRz9aJ2gkoJCYlyv45j-29" vertex="1">
          <mxGeometry y="52" width="520" height="26" as="geometry" />
        </mxCell>
        <mxCell id="rCRz9aJ2gkoJCYlyv45j-32" value="Prix" style="text;align=left;verticalAlign=top;spacingLeft=4;spacingRight=4;overflow=hidden;rotatable=0;points=[[0,0.5],[1,0.5]];portConstraint=eastwest;rounded=0;shadow=0;html=0;" parent="rCRz9aJ2gkoJCYlyv45j-29" vertex="1">
          <mxGeometry y="78" width="520" height="26" as="geometry" />
        </mxCell>
        <mxCell id="rCRz9aJ2gkoJCYlyv45j-33" value="Description" style="text;align=left;verticalAlign=top;spacingLeft=4;spacingRight=4;overflow=hidden;rotatable=0;points=[[0,0.5],[1,0.5]];portConstraint=eastwest;rounded=0;shadow=0;html=0;" parent="rCRz9aJ2gkoJCYlyv45j-29" vertex="1">
          <mxGeometry y="104" width="520" height="26" as="geometry" />
        </mxCell>
        <mxCell id="rCRz9aJ2gkoJCYlyv45j-36" value="" style="line;html=1;strokeWidth=1;align=left;verticalAlign=middle;spacingTop=-1;spacingLeft=3;spacingRight=3;rotatable=0;labelPosition=right;points=[];portConstraint=eastwest;" parent="rCRz9aJ2gkoJCYlyv45j-29" vertex="1">
          <mxGeometry y="130" width="520" height="8" as="geometry" />
        </mxCell>
        <mxCell id="rCRz9aJ2gkoJCYlyv45j-37" value="GET : GetAllsubscriber() / Admin, récupérer  tous les adhérent avec leur forfait correspondant " style="text;align=left;verticalAlign=top;spacingLeft=4;spacingRight=4;overflow=hidden;rotatable=0;points=[[0,0.5],[1,0.5]];portConstraint=eastwest;" parent="rCRz9aJ2gkoJCYlyv45j-29" vertex="1">
          <mxGeometry y="138" width="520" height="26" as="geometry" />
        </mxCell>
        <mxCell id="rCRz9aJ2gkoJCYlyv45j-38" value="GET : getSubscriberById() / Admin, récupérer tous les adhérent pour un abonnement spécifique " style="text;align=left;verticalAlign=top;spacingLeft=4;spacingRight=4;overflow=hidden;rotatable=0;points=[[0,0.5],[1,0.5]];portConstraint=eastwest;" parent="rCRz9aJ2gkoJCYlyv45j-29" vertex="1">
          <mxGeometry y="164" width="520" height="26" as="geometry" />
        </mxCell>
        <mxCell id="rCRz9aJ2gkoJCYlyv45j-39" value="GET : getAllSubscription() / Admin, récupérer tous les abonnements " style="text;align=left;verticalAlign=top;spacingLeft=4;spacingRight=4;overflow=hidden;rotatable=0;points=[[0,0.5],[1,0.5]];portConstraint=eastwest;" parent="rCRz9aJ2gkoJCYlyv45j-29" vertex="1">
          <mxGeometry y="190" width="520" height="26" as="geometry" />
        </mxCell>
        <mxCell id="rCRz9aJ2gkoJCYlyv45j-40" value="" style="endArrow=none;html=1;rounded=0;exitX=0.176;exitY=-0.003;exitDx=0;exitDy=0;exitPerimeter=0;" parent="WIyWlLk6GJQsqaUBKTNV-1" source="zkfFHV4jXpPFQw0GAbJ--0" edge="1">
          <mxGeometry width="50" height="50" relative="1" as="geometry">
            <mxPoint x="210" y="-10" as="sourcePoint" />
            <mxPoint x="-240" y="-160" as="targetPoint" />
          </mxGeometry>
        </mxCell>
        <mxCell id="rCRz9aJ2gkoJCYlyv45j-41" value="1.1" style="text;html=1;align=center;verticalAlign=middle;whiteSpace=wrap;rounded=0;" parent="WIyWlLk6GJQsqaUBKTNV-1" vertex="1">
          <mxGeometry x="-140" y="40" width="60" height="30" as="geometry" />
        </mxCell>
        <mxCell id="rCRz9aJ2gkoJCYlyv45j-42" value="0.n" style="text;html=1;align=center;verticalAlign=middle;whiteSpace=wrap;rounded=0;" parent="WIyWlLk6GJQsqaUBKTNV-1" vertex="1">
          <mxGeometry x="-300" y="-160" width="60" height="30" as="geometry" />
        </mxCell>
        <mxCell id="rCRz9aJ2gkoJCYlyv45j-45" value="Club" style="swimlane;fontStyle=2;align=center;verticalAlign=top;childLayout=stackLayout;horizontal=1;startSize=26;horizontalStack=0;resizeParent=1;resizeLast=0;collapsible=1;marginBottom=0;rounded=0;shadow=0;strokeWidth=1;" parent="WIyWlLk6GJQsqaUBKTNV-1" vertex="1">
          <mxGeometry x="950" y="110" width="510" height="294" as="geometry">
            <mxRectangle x="230" y="140" width="160" height="26" as="alternateBounds" />
          </mxGeometry>
        </mxCell>
        <mxCell id="rCRz9aJ2gkoJCYlyv45j-46" value="Id" style="text;align=left;verticalAlign=top;spacingLeft=4;spacingRight=4;overflow=hidden;rotatable=0;points=[[0,0.5],[1,0.5]];portConstraint=eastwest;" parent="rCRz9aJ2gkoJCYlyv45j-45" vertex="1">
          <mxGeometry y="26" width="510" height="26" as="geometry" />
        </mxCell>
        <mxCell id="rCRz9aJ2gkoJCYlyv45j-57" value="Nom" style="text;align=left;verticalAlign=top;spacingLeft=4;spacingRight=4;overflow=hidden;rotatable=0;points=[[0,0.5],[1,0.5]];portConstraint=eastwest;rounded=0;shadow=0;html=0;" parent="rCRz9aJ2gkoJCYlyv45j-45" vertex="1">
          <mxGeometry y="52" width="510" height="26" as="geometry" />
        </mxCell>
        <mxCell id="rCRz9aJ2gkoJCYlyv45j-47" value="Description" style="text;align=left;verticalAlign=top;spacingLeft=4;spacingRight=4;overflow=hidden;rotatable=0;points=[[0,0.5],[1,0.5]];portConstraint=eastwest;rounded=0;shadow=0;html=0;" parent="rCRz9aJ2gkoJCYlyv45j-45" vertex="1">
          <mxGeometry y="78" width="510" height="26" as="geometry" />
        </mxCell>
        <mxCell id="rCRz9aJ2gkoJCYlyv45j-48" value="id_adresse" style="text;align=left;verticalAlign=top;spacingLeft=4;spacingRight=4;overflow=hidden;rotatable=0;points=[[0,0.5],[1,0.5]];portConstraint=eastwest;rounded=0;shadow=0;html=0;" parent="rCRz9aJ2gkoJCYlyv45j-45" vertex="1">
          <mxGeometry y="104" width="510" height="26" as="geometry" />
        </mxCell>
        <mxCell id="rCRz9aJ2gkoJCYlyv45j-50" value="" style="line;html=1;strokeWidth=1;align=left;verticalAlign=middle;spacingTop=-1;spacingLeft=3;spacingRight=3;rotatable=0;labelPosition=right;points=[];portConstraint=eastwest;" parent="rCRz9aJ2gkoJCYlyv45j-45" vertex="1">
          <mxGeometry y="130" width="510" height="8" as="geometry" />
        </mxCell>
        <mxCell id="rCRz9aJ2gkoJCYlyv45j-51" value="GET : getAllClub() / Admin, Récupère tous les club  " style="text;align=left;verticalAlign=top;spacingLeft=4;spacingRight=4;overflow=hidden;rotatable=0;points=[[0,0.5],[1,0.5]];portConstraint=eastwest;" parent="rCRz9aJ2gkoJCYlyv45j-45" vertex="1">
          <mxGeometry y="138" width="510" height="26" as="geometry" />
        </mxCell>
        <mxCell id="rCRz9aJ2gkoJCYlyv45j-52" value="GET : getClubById() / Admin, Récupère un club par son identifiant " style="text;align=left;verticalAlign=top;spacingLeft=4;spacingRight=4;overflow=hidden;rotatable=0;points=[[0,0.5],[1,0.5]];portConstraint=eastwest;" parent="rCRz9aJ2gkoJCYlyv45j-45" vertex="1">
          <mxGeometry y="164" width="510" height="26" as="geometry" />
        </mxCell>
        <mxCell id="rCRz9aJ2gkoJCYlyv45j-53" value="GET : getAllCoursesByClub() Admin / Adhérent,  récupère tous les cours pour un club donnée" style="text;align=left;verticalAlign=top;spacingLeft=4;spacingRight=4;overflow=hidden;rotatable=0;points=[[0,0.5],[1,0.5]];portConstraint=eastwest;" parent="rCRz9aJ2gkoJCYlyv45j-45" vertex="1">
          <mxGeometry y="190" width="510" height="26" as="geometry" />
        </mxCell>
        <mxCell id="rCRz9aJ2gkoJCYlyv45j-85" value="POST : AddClub / Admin, Ajouter un club " style="text;align=left;verticalAlign=top;spacingLeft=4;spacingRight=4;overflow=hidden;rotatable=0;points=[[0,0.5],[1,0.5]];portConstraint=eastwest;" parent="rCRz9aJ2gkoJCYlyv45j-45" vertex="1">
          <mxGeometry y="216" width="510" height="26" as="geometry" />
        </mxCell>
        <mxCell id="rCRz9aJ2gkoJCYlyv45j-86" value="UPDATE : UpdateClub / Admin, Modifier un club" style="text;align=left;verticalAlign=top;spacingLeft=4;spacingRight=4;overflow=hidden;rotatable=0;points=[[0,0.5],[1,0.5]];portConstraint=eastwest;" parent="rCRz9aJ2gkoJCYlyv45j-45" vertex="1">
          <mxGeometry y="242" width="510" height="26" as="geometry" />
        </mxCell>
        <mxCell id="rCRz9aJ2gkoJCYlyv45j-87" value="DELETE : deleteClub / Admin, Supprimer un club" style="text;align=left;verticalAlign=top;spacingLeft=4;spacingRight=4;overflow=hidden;rotatable=0;points=[[0,0.5],[1,0.5]];portConstraint=eastwest;" parent="rCRz9aJ2gkoJCYlyv45j-45" vertex="1">
          <mxGeometry y="268" width="510" height="26" as="geometry" />
        </mxCell>
        <mxCell id="rCRz9aJ2gkoJCYlyv45j-54" value="" style="endArrow=none;html=1;rounded=0;entryX=0;entryY=0.5;entryDx=0;entryDy=0;exitX=1;exitY=0.5;exitDx=0;exitDy=0;" parent="WIyWlLk6GJQsqaUBKTNV-1" source="rCRz9aJ2gkoJCYlyv45j-15" edge="1">
          <mxGeometry width="50" height="50" relative="1" as="geometry">
            <mxPoint x="790" y="260" as="sourcePoint" />
            <mxPoint x="949.9999999999998" y="227" as="targetPoint" />
          </mxGeometry>
        </mxCell>
        <mxCell id="rCRz9aJ2gkoJCYlyv45j-55" value="0.1" style="text;html=1;align=center;verticalAlign=middle;whiteSpace=wrap;rounded=0;" parent="WIyWlLk6GJQsqaUBKTNV-1" vertex="1">
          <mxGeometry x="700" y="170" width="60" height="30" as="geometry" />
        </mxCell>
        <mxCell id="rCRz9aJ2gkoJCYlyv45j-56" value="1.1" style="text;html=1;align=center;verticalAlign=middle;whiteSpace=wrap;rounded=0;" parent="WIyWlLk6GJQsqaUBKTNV-1" vertex="1">
          <mxGeometry x="900" y="190" width="60" height="30" as="geometry" />
        </mxCell>
        <mxCell id="rCRz9aJ2gkoJCYlyv45j-58" value="Cours Collectif" style="swimlane;fontStyle=2;align=center;verticalAlign=top;childLayout=stackLayout;horizontal=1;startSize=26;horizontalStack=0;resizeParent=1;resizeLast=0;collapsible=1;marginBottom=0;rounded=0;shadow=0;strokeWidth=1;" parent="WIyWlLk6GJQsqaUBKTNV-1" vertex="1">
          <mxGeometry x="1130" y="-419" width="450" height="268" as="geometry">
            <mxRectangle x="230" y="140" width="160" height="26" as="alternateBounds" />
          </mxGeometry>
        </mxCell>
        <mxCell id="rCRz9aJ2gkoJCYlyv45j-59" value="Id" style="text;align=left;verticalAlign=top;spacingLeft=4;spacingRight=4;overflow=hidden;rotatable=0;points=[[0,0.5],[1,0.5]];portConstraint=eastwest;" parent="rCRz9aJ2gkoJCYlyv45j-58" vertex="1">
          <mxGeometry y="26" width="450" height="26" as="geometry" />
        </mxCell>
        <mxCell id="rCRz9aJ2gkoJCYlyv45j-60" value="Nom" style="text;align=left;verticalAlign=top;spacingLeft=4;spacingRight=4;overflow=hidden;rotatable=0;points=[[0,0.5],[1,0.5]];portConstraint=eastwest;rounded=0;shadow=0;html=0;" parent="rCRz9aJ2gkoJCYlyv45j-58" vertex="1">
          <mxGeometry y="52" width="450" height="26" as="geometry" />
        </mxCell>
        <mxCell id="rCRz9aJ2gkoJCYlyv45j-61" value="Description" style="text;align=left;verticalAlign=top;spacingLeft=4;spacingRight=4;overflow=hidden;rotatable=0;points=[[0,0.5],[1,0.5]];portConstraint=eastwest;rounded=0;shadow=0;html=0;" parent="rCRz9aJ2gkoJCYlyv45j-58" vertex="1">
          <mxGeometry y="78" width="450" height="26" as="geometry" />
        </mxCell>
        <mxCell id="c0PpywarjpfCv0ZGk2mQ-1" value="Max de Participant" style="text;align=left;verticalAlign=top;spacingLeft=4;spacingRight=4;overflow=hidden;rotatable=0;points=[[0,0.5],[1,0.5]];portConstraint=eastwest;rounded=0;shadow=0;html=0;" vertex="1" parent="rCRz9aJ2gkoJCYlyv45j-58">
          <mxGeometry y="104" width="450" height="26" as="geometry" />
        </mxCell>
        <mxCell id="rCRz9aJ2gkoJCYlyv45j-70" value="id_club" style="text;align=left;verticalAlign=top;spacingLeft=4;spacingRight=4;overflow=hidden;rotatable=0;points=[[0,0.5],[1,0.5]];portConstraint=eastwest;rounded=0;shadow=0;html=0;" parent="rCRz9aJ2gkoJCYlyv45j-58" vertex="1">
          <mxGeometry y="130" width="450" height="26" as="geometry" />
        </mxCell>
        <mxCell id="rCRz9aJ2gkoJCYlyv45j-65" value="" style="line;html=1;strokeWidth=1;align=left;verticalAlign=middle;spacingTop=-1;spacingLeft=3;spacingRight=3;rotatable=0;labelPosition=right;points=[];portConstraint=eastwest;" parent="rCRz9aJ2gkoJCYlyv45j-58" vertex="1">
          <mxGeometry y="156" width="450" height="8" as="geometry" />
        </mxCell>
        <mxCell id="rCRz9aJ2gkoJCYlyv45j-66" value="GET : getAllCourses / Admin, récupère tous les cours collectifs " style="text;align=left;verticalAlign=top;spacingLeft=4;spacingRight=4;overflow=hidden;rotatable=0;points=[[0,0.5],[1,0.5]];portConstraint=eastwest;" parent="rCRz9aJ2gkoJCYlyv45j-58" vertex="1">
          <mxGeometry y="164" width="450" height="26" as="geometry" />
        </mxCell>
        <mxCell id="rCRz9aJ2gkoJCYlyv45j-84" value="POST : AddCourses / Admin, Ajouter des cours collectifs" style="text;align=left;verticalAlign=top;spacingLeft=4;spacingRight=4;overflow=hidden;rotatable=0;points=[[0,0.5],[1,0.5]];portConstraint=eastwest;" parent="rCRz9aJ2gkoJCYlyv45j-58" vertex="1">
          <mxGeometry y="190" width="450" height="26" as="geometry" />
        </mxCell>
        <mxCell id="c0PpywarjpfCv0ZGk2mQ-2" value="GET : getCoursesByClub / Admin, Adhérent  // Voir les cours collectifs par club" style="text;align=left;verticalAlign=top;spacingLeft=4;spacingRight=4;overflow=hidden;rotatable=0;points=[[0,0.5],[1,0.5]];portConstraint=eastwest;" vertex="1" parent="rCRz9aJ2gkoJCYlyv45j-58">
          <mxGeometry y="216" width="450" height="26" as="geometry" />
        </mxCell>
        <mxCell id="c0PpywarjpfCv0ZGk2mQ-3" value="GET : getCoursesByDate() / Admin, Adhérent // Voir les cours sur une date donnée" style="text;align=left;verticalAlign=top;spacingLeft=4;spacingRight=4;overflow=hidden;rotatable=0;points=[[0,0.5],[1,0.5]];portConstraint=eastwest;" vertex="1" parent="rCRz9aJ2gkoJCYlyv45j-58">
          <mxGeometry y="242" width="450" height="26" as="geometry" />
        </mxCell>
        <mxCell id="rCRz9aJ2gkoJCYlyv45j-67" value="" style="endArrow=none;html=1;rounded=0;entryX=0.5;entryY=1;entryDx=0;entryDy=0;exitX=0.574;exitY=-0.011;exitDx=0;exitDy=0;exitPerimeter=0;" parent="WIyWlLk6GJQsqaUBKTNV-1" source="rCRz9aJ2gkoJCYlyv45j-45" target="rCRz9aJ2gkoJCYlyv45j-58" edge="1">
          <mxGeometry width="50" height="50" relative="1" as="geometry">
            <mxPoint x="1190" y="-50" as="sourcePoint" />
            <mxPoint x="1240" y="-100" as="targetPoint" />
          </mxGeometry>
        </mxCell>
        <mxCell id="rCRz9aJ2gkoJCYlyv45j-68" value="1.n" style="text;html=1;align=center;verticalAlign=middle;whiteSpace=wrap;rounded=0;" parent="WIyWlLk6GJQsqaUBKTNV-1" vertex="1">
          <mxGeometry x="1301" y="-150" width="60" height="30" as="geometry" />
        </mxCell>
        <mxCell id="rCRz9aJ2gkoJCYlyv45j-69" value="0.n" style="text;html=1;align=center;verticalAlign=middle;whiteSpace=wrap;rounded=0;" parent="WIyWlLk6GJQsqaUBKTNV-1" vertex="1">
          <mxGeometry x="1241" y="80" width="60" height="30" as="geometry" />
        </mxCell>
        <mxCell id="rCRz9aJ2gkoJCYlyv45j-71" value="Coach" style="swimlane;fontStyle=2;align=center;verticalAlign=top;childLayout=stackLayout;horizontal=1;startSize=26;horizontalStack=0;resizeParent=1;resizeLast=0;collapsible=1;marginBottom=0;rounded=0;shadow=0;strokeWidth=1;" parent="WIyWlLk6GJQsqaUBKTNV-1" vertex="1">
          <mxGeometry x="940" y="540" width="510" height="242" as="geometry">
            <mxRectangle x="230" y="140" width="160" height="26" as="alternateBounds" />
          </mxGeometry>
        </mxCell>
        <mxCell id="rCRz9aJ2gkoJCYlyv45j-72" value="Id" style="text;align=left;verticalAlign=top;spacingLeft=4;spacingRight=4;overflow=hidden;rotatable=0;points=[[0,0.5],[1,0.5]];portConstraint=eastwest;" parent="rCRz9aJ2gkoJCYlyv45j-71" vertex="1">
          <mxGeometry y="26" width="510" height="26" as="geometry" />
        </mxCell>
        <mxCell id="rCRz9aJ2gkoJCYlyv45j-73" value="Nom" style="text;align=left;verticalAlign=top;spacingLeft=4;spacingRight=4;overflow=hidden;rotatable=0;points=[[0,0.5],[1,0.5]];portConstraint=eastwest;rounded=0;shadow=0;html=0;" parent="rCRz9aJ2gkoJCYlyv45j-71" vertex="1">
          <mxGeometry y="52" width="510" height="26" as="geometry" />
        </mxCell>
        <mxCell id="rCRz9aJ2gkoJCYlyv45j-74" value="Prénom" style="text;align=left;verticalAlign=top;spacingLeft=4;spacingRight=4;overflow=hidden;rotatable=0;points=[[0,0.5],[1,0.5]];portConstraint=eastwest;rounded=0;shadow=0;html=0;" parent="rCRz9aJ2gkoJCYlyv45j-71" vertex="1">
          <mxGeometry y="78" width="510" height="26" as="geometry" />
        </mxCell>
        <mxCell id="rCRz9aJ2gkoJCYlyv45j-75" value="Description" style="text;align=left;verticalAlign=top;spacingLeft=4;spacingRight=4;overflow=hidden;rotatable=0;points=[[0,0.5],[1,0.5]];portConstraint=eastwest;rounded=0;shadow=0;html=0;" parent="rCRz9aJ2gkoJCYlyv45j-71" vertex="1">
          <mxGeometry y="104" width="510" height="26" as="geometry" />
        </mxCell>
        <mxCell id="rCRz9aJ2gkoJCYlyv45j-76" value="" style="line;html=1;strokeWidth=1;align=left;verticalAlign=middle;spacingTop=-1;spacingLeft=3;spacingRight=3;rotatable=0;labelPosition=right;points=[];portConstraint=eastwest;" parent="rCRz9aJ2gkoJCYlyv45j-71" vertex="1">
          <mxGeometry y="130" width="510" height="8" as="geometry" />
        </mxCell>
        <mxCell id="rCRz9aJ2gkoJCYlyv45j-80" value="Description" style="text;align=left;verticalAlign=top;spacingLeft=4;spacingRight=4;overflow=hidden;rotatable=0;points=[[0,0.5],[1,0.5]];portConstraint=eastwest;rounded=0;shadow=0;html=0;" parent="rCRz9aJ2gkoJCYlyv45j-71" vertex="1">
          <mxGeometry y="138" width="510" height="26" as="geometry" />
        </mxCell>
        <mxCell id="rCRz9aJ2gkoJCYlyv45j-77" value="GET : getAllClub() / Admin, Récupère tous les club  " style="text;align=left;verticalAlign=top;spacingLeft=4;spacingRight=4;overflow=hidden;rotatable=0;points=[[0,0.5],[1,0.5]];portConstraint=eastwest;" parent="rCRz9aJ2gkoJCYlyv45j-71" vertex="1">
          <mxGeometry y="164" width="510" height="26" as="geometry" />
        </mxCell>
        <mxCell id="rCRz9aJ2gkoJCYlyv45j-78" value="GET : getClubById() / Admin, Récupère un club par son identifiant " style="text;align=left;verticalAlign=top;spacingLeft=4;spacingRight=4;overflow=hidden;rotatable=0;points=[[0,0.5],[1,0.5]];portConstraint=eastwest;" parent="rCRz9aJ2gkoJCYlyv45j-71" vertex="1">
          <mxGeometry y="190" width="510" height="26" as="geometry" />
        </mxCell>
        <mxCell id="rCRz9aJ2gkoJCYlyv45j-79" value="GET : getAllCoursesByClub() Admin / Adhérent,  récupère tous les cours pour un club donnée" style="text;align=left;verticalAlign=top;spacingLeft=4;spacingRight=4;overflow=hidden;rotatable=0;points=[[0,0.5],[1,0.5]];portConstraint=eastwest;" parent="rCRz9aJ2gkoJCYlyv45j-71" vertex="1">
          <mxGeometry y="216" width="510" height="26" as="geometry" />
        </mxCell>
        <mxCell id="rCRz9aJ2gkoJCYlyv45j-81" value="" style="endArrow=none;html=1;rounded=0;exitX=0.488;exitY=-0.015;exitDx=0;exitDy=0;exitPerimeter=0;" parent="WIyWlLk6GJQsqaUBKTNV-1" source="rCRz9aJ2gkoJCYlyv45j-71" edge="1">
          <mxGeometry width="50" height="50" relative="1" as="geometry">
            <mxPoint x="1170" y="480" as="sourcePoint" />
            <mxPoint x="1180" y="420" as="targetPoint" />
          </mxGeometry>
        </mxCell>
        <mxCell id="rCRz9aJ2gkoJCYlyv45j-82" value="1.n" style="text;html=1;align=center;verticalAlign=middle;whiteSpace=wrap;rounded=0;" parent="WIyWlLk6GJQsqaUBKTNV-1" vertex="1">
          <mxGeometry x="1210" y="400" width="60" height="30" as="geometry" />
        </mxCell>
        <mxCell id="rCRz9aJ2gkoJCYlyv45j-83" value="1.n" style="text;html=1;align=center;verticalAlign=middle;whiteSpace=wrap;rounded=0;" parent="WIyWlLk6GJQsqaUBKTNV-1" vertex="1">
          <mxGeometry x="1130" y="510" width="60" height="30" as="geometry" />
        </mxCell>
        <mxCell id="c0PpywarjpfCv0ZGk2mQ-4" value="Réservation" style="swimlane;fontStyle=2;align=center;verticalAlign=top;childLayout=stackLayout;horizontal=1;startSize=26;horizontalStack=0;resizeParent=1;resizeLast=0;collapsible=1;marginBottom=0;rounded=0;shadow=0;strokeWidth=1;" vertex="1" parent="WIyWlLk6GJQsqaUBKTNV-1">
          <mxGeometry x="370" y="-460" width="520" height="268" as="geometry">
            <mxRectangle x="230" y="140" width="160" height="26" as="alternateBounds" />
          </mxGeometry>
        </mxCell>
        <mxCell id="c0PpywarjpfCv0ZGk2mQ-5" value="Id" style="text;align=left;verticalAlign=top;spacingLeft=4;spacingRight=4;overflow=hidden;rotatable=0;points=[[0,0.5],[1,0.5]];portConstraint=eastwest;" vertex="1" parent="c0PpywarjpfCv0ZGk2mQ-4">
          <mxGeometry y="26" width="520" height="26" as="geometry" />
        </mxCell>
        <mxCell id="c0PpywarjpfCv0ZGk2mQ-6" value="User_id" style="text;align=left;verticalAlign=top;spacingLeft=4;spacingRight=4;overflow=hidden;rotatable=0;points=[[0,0.5],[1,0.5]];portConstraint=eastwest;rounded=0;shadow=0;html=0;" vertex="1" parent="c0PpywarjpfCv0ZGk2mQ-4">
          <mxGeometry y="52" width="520" height="26" as="geometry" />
        </mxCell>
        <mxCell id="c0PpywarjpfCv0ZGk2mQ-7" value="Cours_id" style="text;align=left;verticalAlign=top;spacingLeft=4;spacingRight=4;overflow=hidden;rotatable=0;points=[[0,0.5],[1,0.5]];portConstraint=eastwest;rounded=0;shadow=0;html=0;" vertex="1" parent="c0PpywarjpfCv0ZGk2mQ-4">
          <mxGeometry y="78" width="520" height="26" as="geometry" />
        </mxCell>
        <mxCell id="c0PpywarjpfCv0ZGk2mQ-8" value="Date de réservation" style="text;align=left;verticalAlign=top;spacingLeft=4;spacingRight=4;overflow=hidden;rotatable=0;points=[[0,0.5],[1,0.5]];portConstraint=eastwest;rounded=0;shadow=0;html=0;" vertex="1" parent="c0PpywarjpfCv0ZGk2mQ-4">
          <mxGeometry y="104" width="520" height="26" as="geometry" />
        </mxCell>
        <mxCell id="c0PpywarjpfCv0ZGk2mQ-9" value="" style="line;html=1;strokeWidth=1;align=left;verticalAlign=middle;spacingTop=-1;spacingLeft=3;spacingRight=3;rotatable=0;labelPosition=right;points=[];portConstraint=eastwest;" vertex="1" parent="c0PpywarjpfCv0ZGk2mQ-4">
          <mxGeometry y="130" width="520" height="8" as="geometry" />
        </mxCell>
        <mxCell id="c0PpywarjpfCv0ZGk2mQ-10" value="POST : createReservation() / Admin // Crée une réservation" style="text;align=left;verticalAlign=top;spacingLeft=4;spacingRight=4;overflow=hidden;rotatable=0;points=[[0,0.5],[1,0.5]];portConstraint=eastwest;" vertex="1" parent="c0PpywarjpfCv0ZGk2mQ-4">
          <mxGeometry y="138" width="520" height="26" as="geometry" />
        </mxCell>
        <mxCell id="c0PpywarjpfCv0ZGk2mQ-11" value="GET : getReservation / Admin // Voir toutes les réservations&#xa;" style="text;align=left;verticalAlign=top;spacingLeft=4;spacingRight=4;overflow=hidden;rotatable=0;points=[[0,0.5],[1,0.5]];portConstraint=eastwest;" vertex="1" parent="c0PpywarjpfCv0ZGk2mQ-4">
          <mxGeometry y="164" width="520" height="26" as="geometry" />
        </mxCell>
        <mxCell id="c0PpywarjpfCv0ZGk2mQ-12" value="GET :  cancelReservation()/ Admin, Adhérent // Annuler une réservation" style="text;align=left;verticalAlign=top;spacingLeft=4;spacingRight=4;overflow=hidden;rotatable=0;points=[[0,0.5],[1,0.5]];portConstraint=eastwest;" vertex="1" parent="c0PpywarjpfCv0ZGk2mQ-4">
          <mxGeometry y="190" width="520" height="26" as="geometry" />
        </mxCell>
        <mxCell id="c0PpywarjpfCv0ZGk2mQ-13" value="GET :   getUserReservations() / Admin, Adhérent // Voir les réservation d&#39;un utilisateur " style="text;align=left;verticalAlign=top;spacingLeft=4;spacingRight=4;overflow=hidden;rotatable=0;points=[[0,0.5],[1,0.5]];portConstraint=eastwest;" vertex="1" parent="c0PpywarjpfCv0ZGk2mQ-4">
          <mxGeometry y="216" width="520" height="26" as="geometry" />
        </mxCell>
        <mxCell id="c0PpywarjpfCv0ZGk2mQ-14" value="GET :  getCourseReservations() / Admin // Voir les réservation par cours" style="text;align=left;verticalAlign=top;spacingLeft=4;spacingRight=4;overflow=hidden;rotatable=0;points=[[0,0.5],[1,0.5]];portConstraint=eastwest;" vertex="1" parent="c0PpywarjpfCv0ZGk2mQ-4">
          <mxGeometry y="242" width="520" height="26" as="geometry" />
        </mxCell>
        <mxCell id="c0PpywarjpfCv0ZGk2mQ-15" value="" style="endArrow=none;html=1;rounded=0;exitX=0.554;exitY=-0.002;exitDx=0;exitDy=0;exitPerimeter=0;entryX=0;entryY=0.5;entryDx=0;entryDy=0;" edge="1" parent="WIyWlLk6GJQsqaUBKTNV-1" source="zkfFHV4jXpPFQw0GAbJ--0" target="c0PpywarjpfCv0ZGk2mQ-13">
          <mxGeometry width="50" height="50" relative="1" as="geometry">
            <mxPoint x="250" y="-40" as="sourcePoint" />
            <mxPoint x="640" y="-190" as="targetPoint" />
            <Array as="points">
              <mxPoint x="200" y="-110" />
            </Array>
          </mxGeometry>
        </mxCell>
        <mxCell id="c0PpywarjpfCv0ZGk2mQ-16" value="" style="endArrow=none;html=1;rounded=0;entryX=0;entryY=0.5;entryDx=0;entryDy=0;exitX=1;exitY=0.5;exitDx=0;exitDy=0;" edge="1" parent="WIyWlLk6GJQsqaUBKTNV-1" source="c0PpywarjpfCv0ZGk2mQ-11" target="rCRz9aJ2gkoJCYlyv45j-70">
          <mxGeometry width="50" height="50" relative="1" as="geometry">
            <mxPoint x="1000" y="-240" as="sourcePoint" />
            <mxPoint x="1050" y="-290" as="targetPoint" />
          </mxGeometry>
        </mxCell>
        <mxCell id="c0PpywarjpfCv0ZGk2mQ-17" value="1.1" style="text;html=1;align=center;verticalAlign=middle;whiteSpace=wrap;rounded=0;" vertex="1" parent="WIyWlLk6GJQsqaUBKTNV-1">
          <mxGeometry x="890" y="-280" width="60" height="30" as="geometry" />
        </mxCell>
        <mxCell id="c0PpywarjpfCv0ZGk2mQ-18" value="0.1" style="text;html=1;align=center;verticalAlign=middle;whiteSpace=wrap;rounded=0;" vertex="1" parent="WIyWlLk6GJQsqaUBKTNV-1">
          <mxGeometry x="1070" y="-310" width="60" height="30" as="geometry" />
        </mxCell>
        <mxCell id="c0PpywarjpfCv0ZGk2mQ-19" value="1.n" style="text;html=1;align=center;verticalAlign=middle;whiteSpace=wrap;rounded=0;" vertex="1" parent="WIyWlLk6GJQsqaUBKTNV-1">
          <mxGeometry x="310" y="-250" width="60" height="30" as="geometry" />
        </mxCell>
        <mxCell id="c0PpywarjpfCv0ZGk2mQ-20" value="0.n" style="text;html=1;align=center;verticalAlign=middle;whiteSpace=wrap;rounded=0;" vertex="1" parent="WIyWlLk6GJQsqaUBKTNV-1">
          <mxGeometry x="80" y="40" width="60" height="30" as="geometry" />
        </mxCell>
      </root>
    </mxGraphModel>
  </diagram>
</mxfile>
